HIERARCHY
ROOT hips
{
	OFFSET 0.000000 104.274902 0.000000
	CHANNELS 6 Xposition Yposition Zposition Xrotation Yrotation Zrotation
	JOINT spine
	{
		OFFSET 0.000000 10.181549 0.131524
		CHANNELS 6 Xposition Yposition Zposition Xrotation Yrotation Zrotation
		JOINT chest
		{
			OFFSET 0.000000 9.893990 -1.470706
			CHANNELS 3 Xrotation Yrotation Zrotation
			JOINT upperChest
			{
				OFFSET 0.000000 9.220787 -1.370637
				CHANNELS 3 Xrotation Yrotation Zrotation
				JOINT neck
				{
					OFFSET 0.000000 16.740372 -2.049022
					CHANNELS 6 Xposition Yposition Zposition Xrotation Yrotation Zrotation
					JOINT head
					{
						OFFSET 0.000000 9.617859 1.684976
						CHANNELS 6 Xposition Yposition Zposition Xrotation Yrotation Zrotation
						JOINT headEnd
						{
							OFFSET 0.000000 22.037384 7.501072
							CHANNELS 6 Xposition Yposition Zposition Xrotation Yrotation Zrotation
							End Site
							{
								OFFSET 0.000000 23.106567 -2.828246
							}
						}
					}
				}
				JOINT rightShoulder
				{
					OFFSET -4.570000 11.014877 -2.160840
					CHANNELS 6 Xposition Yposition Zposition Xrotation Yrotation Zrotation
					JOINT rightUpperArm
					{
						OFFSET -10.592867 -0.524796 -2.232105
						CHANNELS 3 Xrotation Yrotation Zrotation
						JOINT rightLowerArm
						{
							OFFSET -27.841497 0.000000 -0.000002
							CHANNELS 3 Xrotation Yrotation Zrotation
							JOINT rightHand
							{
								OFFSET -28.328812 0.000000 -0.000001
								CHANNELS 3 Xrotation Yrotation Zrotation
								JOINT rightThumbProximal
								{
									OFFSET -2.464798 -1.573990 2.681911
									CHANNELS 6 Xposition Yposition Zposition Xrotation Yrotation Zrotation
									JOINT rightThumbIntermediate
									{
										OFFSET -3.244781 -1.873383 1.873376
										CHANNELS 3 Xrotation Yrotation Zrotation
										JOINT rightThumbDistal
										{
											OFFSET -2.646263 -1.527817 1.527818
											CHANNELS 6 Xposition Yposition Zposition Xrotation Yrotation Zrotation
											JOINT rightHandThumb4
											{
												OFFSET -1.994591 -1.151581 1.151575
												CHANNELS 6 Xposition Yposition Zposition Xrotation Yrotation Zrotation
												End Site
												{
													OFFSET -1.860176 -1.142715 1.365483
												}
											}
										}
									}
								}
								JOINT rightIndexProximal
								{
									OFFSET -9.108299 -0.517883 2.259803
									CHANNELS 6 Xposition Yposition Zposition Xrotation Yrotation Zrotation
									JOINT rightIndexIntermediate
									{
										OFFSET -3.699997 0.000000 0.000000
										CHANNELS 3 Xrotation Yrotation Zrotation
										JOINT rightIndexDistal
										{
											OFFSET -2.850006 0.000000 0.000000
											CHANNELS 3 Xrotation Yrotation Zrotation
											JOINT rightHandIndex4
											{
												OFFSET -2.772194 0.000000 0.000000
												CHANNELS 3 Xrotation Yrotation Zrotation
												End Site
												{
													OFFSET -2.772202 0.000000 -0.000484
												}
											}
										}
									}
								}
								JOINT rightMiddleProximal
								{
									OFFSET -9.532501 0.000000 -0.000000
									CHANNELS 6 Xposition Yposition Zposition Xrotation Yrotation Zrotation
									JOINT rightMiddleIntermediate
									{
										OFFSET -3.699997 0.000000 0.000000
										CHANNELS 3 Xrotation Yrotation Zrotation
										JOINT rightMiddleDistal
										{
											OFFSET -2.949997 0.000000 0.000000
											CHANNELS 3 Xrotation Yrotation Zrotation
											JOINT rightHandMiddle4
											{
												OFFSET -2.946594 0.000000 0.000000
												CHANNELS 3 Xrotation Yrotation Zrotation
												End Site
												{
													OFFSET -2.946602 0.000000 -0.000982
												}
											}
										}
									}
								}
								JOINT rightRingProximal
								{
									OFFSET -9.103600 -0.043106 -1.865100
									CHANNELS 6 Xposition Yposition Zposition Xrotation Yrotation Zrotation
									JOINT rightRingIntermediate
									{
										OFFSET -3.379303 0.000000 0.000000
										CHANNELS 3 Xrotation Yrotation Zrotation
										JOINT rightRingDistal
										{
											OFFSET -2.889694 0.000000 0.000000
											CHANNELS 3 Xrotation Yrotation Zrotation
											JOINT rightHandRing4
											{
												OFFSET -2.638802 0.000000 0.000000
												CHANNELS 3 Xrotation Yrotation Zrotation
												End Site
												{
													OFFSET -2.638802 0.000000 0.004218
												}
											}
										}
									}
								}
								JOINT rightLittleProximal
								{
									OFFSET -8.076698 -0.486725 -3.806299
									CHANNELS 6 Xposition Yposition Zposition Xrotation Yrotation Zrotation
									JOINT rightLittleIntermediate
									{
										OFFSET -3.600006 0.000000 0.000000
										CHANNELS 3 Xrotation Yrotation Zrotation
										JOINT rightLittleDistal
										{
											OFFSET -2.099998 0.000000 0.000000
											CHANNELS 3 Xrotation Yrotation Zrotation
											JOINT rightHandPinky4
											{
												OFFSET -2.115791 0.000000 0.000000
												CHANNELS 3 Xrotation Yrotation Zrotation
												End Site
												{
													OFFSET -2.115799 0.000000 0.000174
												}
											}
										}
									}
								}
							}
						}
					}
				}
				JOINT leftShoulder
				{
					OFFSET 4.570400 11.014679 -2.160816
					CHANNELS 6 Xposition Yposition Zposition Xrotation Yrotation Zrotation
					JOINT leftUpperArm
					{
						OFFSET 10.592373 -0.524597 -2.232116
						CHANNELS 3 Xrotation Yrotation Zrotation
						JOINT leftLowerArm
						{
							OFFSET 27.841488 0.000000 0.000001
							CHANNELS 3 Xrotation Yrotation Zrotation
							JOINT leftHand
							{
								OFFSET 28.328808 0.000000 -0.000000
								CHANNELS 3 Xrotation Yrotation Zrotation
								JOINT leftThumbProximal
								{
									OFFSET 2.466103 -1.576202 2.681698
									CHANNELS 6 Xposition Yposition Zposition Xrotation Yrotation Zrotation
									JOINT leftThumbIntermediate
									{
										OFFSET 3.243317 -1.872528 1.872530
										CHANNELS 3 Xrotation Yrotation Zrotation
										JOINT leftThumbDistal
										{
											OFFSET 2.647881 -1.528763 1.528754
											CHANNELS 6 Xposition Yposition Zposition Xrotation Yrotation Zrotation
											JOINT leftHandThumb4
											{
												OFFSET 1.998924 -1.154083 1.154080
												CHANNELS 6 Xposition Yposition Zposition Xrotation Yrotation Zrotation
												End Site
												{
													OFFSET 1.884041 -1.149155 1.337651
												}
											}
										}
									}
								}
								JOINT leftIndexProximal
								{
									OFFSET 9.109299 -0.518005 2.259900
									CHANNELS 6 Xposition Yposition Zposition Xrotation Yrotation Zrotation
									JOINT leftIndexIntermediate
									{
										OFFSET 3.699997 0.000000 0.000000
										CHANNELS 3 Xrotation Yrotation Zrotation
										JOINT leftIndexDistal
										{
											OFFSET 2.850006 0.000000 0.000000
											CHANNELS 3 Xrotation Yrotation Zrotation
											JOINT leftHandIndex4
											{
												OFFSET 2.774895 0.000000 0.000000
												CHANNELS 3 Xrotation Yrotation Zrotation
												End Site
												{
													OFFSET 2.774902 0.000000 -0.000072
												}
											}
										}
									}
								}
								JOINT leftMiddleProximal
								{
									OFFSET 9.533401 0.000000 0.000000
									CHANNELS 6 Xposition Yposition Zposition Xrotation Yrotation Zrotation
									JOINT leftMiddleIntermediate
									{
										OFFSET 3.699997 0.000000 0.000000
										CHANNELS 3 Xrotation Yrotation Zrotation
										JOINT leftMiddleDistal
										{
											OFFSET 2.949997 0.000000 0.000000
											CHANNELS 3 Xrotation Yrotation Zrotation
											JOINT leftHandMiddle4
											{
												OFFSET 2.952896 0.000000 0.000000
												CHANNELS 3 Xrotation Yrotation Zrotation
												End Site
												{
													OFFSET 2.952904 0.000000 0.000165
												}
											}
										}
									}
								}
								JOINT leftRingProximal
								{
									OFFSET 9.104500 -0.042999 -1.865101
									CHANNELS 6 Xposition Yposition Zposition Xrotation Yrotation Zrotation
									JOINT leftRingIntermediate
									{
										OFFSET 3.149994 0.000000 0.000000
										CHANNELS 3 Xrotation Yrotation Zrotation
										JOINT leftRingDistal
										{
											OFFSET 2.950005 0.000000 0.000000
											CHANNELS 3 Xrotation Yrotation Zrotation
											JOINT leftHandRing4
											{
												OFFSET 2.644302 0.000000 0.000000
												CHANNELS 3 Xrotation Yrotation Zrotation
												End Site
												{
													OFFSET 2.644302 0.000000 0.000083
												}
											}
										}
									}
								}
								JOINT leftLittleProximal
								{
									OFFSET 8.077805 -0.486893 -3.806302
									CHANNELS 6 Xposition Yposition Zposition Xrotation Yrotation Zrotation
									JOINT leftLittleIntermediate
									{
										OFFSET 3.600006 0.000000 0.000000
										CHANNELS 3 Xrotation Yrotation Zrotation
										JOINT leftLittleDistal
										{
											OFFSET 2.099998 0.000000 0.000000
											CHANNELS 3 Xrotation Yrotation Zrotation
											JOINT leftHandPinky4
											{
												OFFSET 2.125496 0.000000 0.000000
												CHANNELS 3 Xrotation Yrotation Zrotation
												End Site
												{
													OFFSET 2.125504 0.000000 -0.001254
												}
											}
										}
									}
								}
							}
						}
					}
				}
			}
		}
	}
	JOINT rightUpperLeg
	{
		OFFSET -8.207800 -6.751701 -1.599544
		CHANNELS 6 Xposition Yposition Zposition Xrotation Yrotation Zrotation
		JOINT rightLowerLeg
		{
			OFFSET 0.000004 -44.370152 0.345934
			CHANNELS 3 Xrotation Yrotation Zrotation
			JOINT rightFoot
			{
				OFFSET 0.000004 -44.423664 -3.043535
				CHANNELS 3 Xrotation Yrotation Zrotation
				JOINT rightToes
				{
					OFFSET 0.000001 -8.728691 10.710592
					CHANNELS 3 Xrotation Yrotation Zrotation
					JOINT rightToesEnd
					{
						OFFSET 0.000000 -0.000665 9.278101
						CHANNELS 3 Xrotation Yrotation Zrotation
						End Site
						{
							OFFSET 0.000000 -0.000665 9.278103
						}
					}
				}
			}
		}
	}
	JOINT leftUpperLeg
	{
		OFFSET 8.207800 -6.751701 -1.599544
		CHANNELS 6 Xposition Yposition Zposition Xrotation Yrotation Zrotation
		JOINT leftLowerLeg
		{
			OFFSET 0.000004 -44.370037 0.346940
			CHANNELS 3 Xrotation Yrotation Zrotation
			JOINT leftFoot
			{
				OFFSET 0.000004 -44.423611 -3.044388
				CHANNELS 3 Xrotation Yrotation Zrotation
				JOINT leftToes
				{
					OFFSET 0.000001 -8.728690 10.710592
					CHANNELS 3 Xrotation Yrotation Zrotation
					JOINT leftToesEnd
					{
						OFFSET 0.000000 -0.000680 9.278101
						CHANNELS 3 Xrotation Yrotation Zrotation
						End Site
						{
							OFFSET 0.000000 -0.000680 9.278101
						}
					}
				}
			}
		}
	}
}
MOTION
Frames: 4
Frame Time: 0.033333
-0.985252 97.298836 1.477808 -17.767100 17.451521 31.339333 -0.000002 10.181547 0.131525 2.614049 -0.126283 1.067484 2.946852 -0.030049 4.560240 2.988757 0.228609 4.518899 0.000006 16.740351 -2.049022 9.344325 -2.736536 -8.716039 -0.000002 9.617867 1.684974 -0.861210 -8.255804 -10.367208 -0.000003 22.037369 7.501073 -0.000000 0.000002 -0.000000 -4.569994 11.014879 -2.160840 4.130101 13.434092 -19.617611 21.579909 -10.103751 83.031604 0.000012 22.115473 0.000013 14.639023 -2.634470 6.713694 -2.464801 -1.574018 2.681911 -1.588481 1.712051 -5.678713 14.030507 -35.534264 -6.927808 -2.646268 -1.527804 1.527816 -2.236431 7.523000 4.500766 -1.994586 -1.151585 1.151578 -0.000002 -0.000002 0.000001 -9.108302 -0.517899 2.259803 0.075887 -0.885342 1.674887 0.272925 -2.489031 17.062704 -0.128671 0.902128 3.108947 -0.000000 -0.000001 0.000002 -9.532506 -0.000017 -0.000001 -0.308190 -3.831954 13.743584 0.804179 -3.801741 31.179107 0.246723 -1.790866 16.962432 0.000001 -0.000000 0.000001 -9.103603 -0.043106 -1.865106 0.825467 -7.846695 26.118778 0.908332 -2.915248 27.558101 -0.163266 0.098311 17.199844 0.000001 -0.000004 0.000001 -8.076693 -0.486742 -3.806299 -5.302515 -15.945765 35.254896 0.453529 -2.604437 28.272607 -0.600464 0.810756 12.706923 -0.000001 -0.000001 0.000000 4.570408 11.014681 -2.160813 8.775524 0.708222 -7.138577 -4.794144 11.513296 -86.084248 -0.000004 -21.655888 0.000004 6.488684 2.025153 -11.100129 2.466103 -1.576232 2.681691 1.088512 1.832461 -2.794829 7.042954 35.401045 4.409846 2.647882 -1.528729 1.528747 1.611597 9.351224 0.582196 1.998913 -1.154090 1.154073 -0.000000 -0.000001 0.000001 9.109299 -0.518010 2.259899 -1.213333 4.991691 -39.613246 0.406597 2.875024 -21.111517 0.010019 0.619369 -8.207940 0.000000 0.000003 -0.000002 9.533406 0.000005 -0.000006 1.131482 8.862865 -48.597916 1.002945 4.119741 -34.939867 0.077418 1.035836 -7.634263 0.000000 0.000000 0.000002 9.104498 -0.042995 -1.865105 4.165306 11.657974 -47.780520 2.037743 4.180322 -44.625826 0.594044 1.938252 -20.496493 0.000001 -0.000002 -0.000000 8.077822 -0.486895 -3.806311 6.779501 18.495268 -52.322517 1.623042 4.343076 -49.239059 0.480996 2.840998 -20.389289 -0.000000 -0.000001 -0.000000 -8.207804 -6.751706 -1.599541 -22.714962 -1.329777 -19.084787 44.947306 -2.254130 -9.536115 -16.931212 -0.031220 -0.872364 7.400454 0.000007 0.000001 -0.000000 0.000000 0.000000 8.207800 -6.751702 -1.599543 3.051145 2.785330 -21.651524 24.993978 8.367285 2.304927 -8.317588 6.720898 -6.736453 -3.396369 0.000000 -0.000005 0.000000 -0.000003 -0.000000 
-1.094658 97.244766 1.525467 -17.719158 17.254593 31.354619 -0.000001 10.181554 0.131520 2.667573 -0.130833 0.918311 2.975583 -0.050100 4.527202 3.018372 0.203877 4.486433 0.000003 16.740374 -2.049019 9.357414 -2.799640 -8.101497 -0.000008 9.617868 1.684974 -0.694866 -8.469532 -9.059590 0.000007 22.037399 7.501072 -0.000000 0.000003 -0.000001 -4.569999 11.014868 -2.160838 4.084877 13.926173 -19.147590 21.694545 -10.394079 82.700484 -0.000003 22.330115 0.000007 14.942842 -2.328854 6.243496 -2.464789 -1.573993 2.681911 -1.631338 1.849761 -5.861034 14.110234 -35.670192 -6.898859 -2.646266 -1.527789 1.527813 -2.236455 7.523015 4.500775 -1.994602 -1.151587 1.151572 -0.000000 -0.000000 0.000004 -9.108283 -0.517876 2.259802 0.242587 -1.419673 1.962435 0.266090 -2.466605 16.830389 -0.124977 0.926224 2.875816 0.000002 -0.000001 0.000001 -9.532495 0.000013 -0.000002 -0.301859 -3.870875 13.790830 0.806939 -3.806518 31.234622 0.248347 -1.796135 17.017285 -0.000000 -0.000003 -0.000000 -9.103595 -0.043105 -1.865103 0.794406 -7.774741 26.126085 0.910000 -2.917794 27.588297 -0.163026 0.095215 17.230129 0.000000 0.000000 0.000000 -8.076688 -0.486725 -3.806302 -5.340566 -15.872480 35.211398 0.454871 -2.607506 28.305824 -0.601210 0.807063 12.740037 -0.000001 0.000002 0.000000 4.570398 11.014697 -2.160813 8.768418 0.678426 -7.098090 -4.590254 11.530252 -86.086796 -0.000004 -22.115364 0.000000 6.618359 1.908383 -11.114766 2.466106 -1.576197 2.681690 0.792924 1.498190 -2.868528 6.938520 35.163924 4.473161 2.647888 -1.528753 1.528751 1.653465 9.453398 0.565410 1.998913 -1.154093 1.154071 0.000001 0.000001 0.000001 9.109301 -0.517994 2.259893 -1.282665 4.951622 -39.842918 0.405566 2.872339 -21.082986 0.009705 0.616493 -8.179430 -0.000001 0.000002 -0.000003 9.533401 0.000027 -0.000010 1.090256 8.830827 -48.741022 1.002749 4.119472 -34.936653 0.077380 1.035522 -7.630914 -0.000001 -0.000002 0.000001 9.104517 -0.043004 -1.865109 4.161449 11.642767 -47.931993 2.040480 4.182595 -44.661613 0.595602 1.941436 -20.532162 0.000000 0.000001 -0.000000 8.077800 -0.486882 -3.806311 6.741794 18.460890 -52.284207 1.620146 4.340132 -49.197952 0.479322 2.837250 -20.348325 -0.000000 -0.000001 -0.000001 -8.207802 -6.751708 -1.599547 -22.875410 -1.095382 -18.995577 45.630875 -2.866875 -9.548892 -19.644036 0.028551 -0.801078 6.787094 0.000003 -0.000003 0.000000 -0.000000 0.000000 8.207807 -6.751698 -1.599545 3.017675 2.863699 -21.673249 25.135849 8.366916 2.364054 -8.380677 6.842842 -6.860367 -3.435055 -0.000004 0.000003 0.000000 -0.000000 0.000000 
-1.230011 97.199745 1.571478 -17.669855 17.189327 31.319774 -0.000004 10.181554 0.131520 2.680838 -0.141284 0.785961 2.971881 -0.077416 4.502857 3.015988 0.170400 4.463174 -0.000001 16.740358 -2.049026 9.367496 -2.847620 -7.634093 -0.000005 9.617836 1.684978 -0.641535 -8.552536 -8.633625 -0.000000 22.037369 7.501075 0.000001 0.000000 0.000000 -4.570007 11.014876 -2.160841 4.061142 14.286392 -18.553994 21.497397 -10.853060 82.421354 0.000005 22.109510 0.000011 15.071509 -1.802228 5.722660 -2.464808 -1.573997 2.681911 -1.668506 1.963785 -6.000165 14.160724 -35.756105 -6.880477 -2.646279 -1.527817 1.527820 -2.236701 7.523508 4.500807 -1.994590 -1.151580 1.151580 0.000003 -0.000001 -0.000000 -9.108301 -0.517882 2.259801 0.409287 -1.843528 2.118596 0.258978 -2.442967 16.585832 -0.121019 0.951139 2.634307 -0.000002 0.000002 0.000002 -9.532511 -0.000007 0.000000 -0.297288 -3.884164 13.762134 0.808234 -3.808720 31.260061 0.249078 -1.798501 17.042215 0.000002 -0.000004 -0.000001 -9.103603 -0.043121 -1.865101 0.770465 -7.719271 26.069220 0.911144 -2.919549 27.609266 -0.162843 0.093038 17.251320 0.000001 -0.000001 -0.000001 -8.076690 -0.486723 -3.806298 -5.365312 -15.835083 35.128807 0.455650 -2.609332 28.325727 -0.601662 0.804865 12.759901 -0.000000 -0.000001 -0.000000 4.570402 11.014690 -2.160815 8.733017 0.532213 -6.919927 -4.304308 11.482662 -86.193627 0.000003 -22.457215 -0.000004 7.709822 1.568352 -11.084086 2.466083 -1.576220 2.681693 0.449429 1.123632 -3.019618 6.810965 34.871295 4.550267 2.647880 -1.528749 1.528754 1.704925 9.578584 0.544742 1.998902 -1.154080 1.154077 0.000001 0.000006 0.000003 9.109297 -0.518009 2.259900 -1.342543 4.944018 -40.229930 0.404102 2.868559 -21.042834 0.009295 0.612455 -8.139355 -0.000000 0.000004 -0.000004 9.533402 0.000005 -0.000005 1.055044 8.809925 -49.042012 1.001902 4.118201 -34.921207 0.077127 1.033983 -7.615391 0.000000 0.000000 0.000001 9.104496 -0.043004 -1.865107 4.181727 11.644071 -48.181288 2.042269 4.184071 -44.684914 0.596615 1.943490 -20.555367 0.000001 -0.000001 -0.000000 8.077793 -0.486900 -3.806298 6.746440 18.423841 -52.435181 1.615649 4.335529 -49.133813 0.476708 2.831367 -20.284417 0.000000 0.000000 -0.000001 -8.207805 -6.751712 -1.599543 -22.963670 -0.784134 -18.756077 46.147739 -3.613788 -9.527689 -22.225080 0.104707 -0.695882 6.330464 0.000005 0.000003 0.000000 0.000000 0.000000 8.207801 -6.751693 -1.599545 2.947880 3.016008 -21.568646 25.295659 8.356817 2.414336 -8.435093 6.790833 -6.988460 -3.432733 0.000004 -0.000001 -0.000000 -0.000003 -0.000000 
-1.385426 97.162659 1.618115 -17.667415 17.259651 31.238113 -0.000004 10.181541 0.131523 2.666614 -0.160793 0.686457 2.948919 -0.116179 4.482562 2.995482 0.126648 4.443917 -0.000008 16.740379 -2.049023 9.371062 -2.864532 -7.469385 0.000003 9.617850 1.684977 -0.662003 -8.560082 -8.722648 -0.000008 22.037369 7.501076 -0.000000 0.000002 0.000000 -4.570003 11.014894 -2.160839 4.049435 14.491643 -17.844279 21.082379 -11.275252 82.056062 -0.000013 21.464356 0.000031 15.149068 -1.234228 5.270194 -2.464797 -1.573987 2.681907 -1.693980 2.047644 -6.109731 14.183396 -35.794549 -6.872139 -2.646271 -1.527797 1.527814 -2.236974 7.523990 4.500869 -1.994594 -1.151573 1.151571 0.000003 -0.000002 0.000001 -9.108295 -0.517881 2.259804 0.534368 -2.205204 2.308136 0.251669 -2.418248 16.330525 -0.116766 0.977158 2.381870 -0.000000 0.000001 0.000001 -9.532497 0.000009 0.000000 -0.301697 -3.852134 13.708699 0.807773 -3.807946 31.251121 0.248829 -1.797689 17.033595 0.000002 -0.000007 0.000001 -9.103600 -0.043099 -1.865100 0.750599 -7.672935 25.985258 0.911748 -2.920481 27.620650 -0.162750 0.091851 17.262946 -0.000000 -0.000002 -0.000001 -8.076693 -0.486732 -3.806301 -5.384956 -15.810556 35.035449 0.456230 -2.610659 28.339896 -0.601982 0.803298 12.774049 0.000000 -0.000001 0.000001 4.570407 11.014695 -2.160815 8.686198 0.334503 -6.670017 -3.992920 11.417261 -86.361165 -0.000013 -22.689318 -0.000010 9.283397 1.022626 -10.900587 2.466093 -1.576194 2.681699 0.222215 0.864432 -3.052234 6.715017 34.649010 4.608097 2.647888 -1.528736 1.528749 1.728655 9.636123 0.535228 1.998928 -1.154082 1.154077 -0.000000 0.000001 0.000001 9.109313 -0.518005 2.259903 -1.371476 4.952703 -40.502550 0.403186 2.866153 -21.017230 0.009015 0.609870 -8.113811 0.000000 0.000000 -0.000005 9.533407 -0.000001 -0.000000 1.032413 8.798269 -49.274709 1.000538 4.116156 -34.896591 0.076723 1.031546 -7.590690 0.000000 -0.000000 -0.000002 9.104510 -0.042998 -1.865105 4.207704 11.656646 -48.352265 2.042024 4.183869 -44.681697 0.596470 1.943211 -20.552162 -0.000000 -0.000000 -0.000000 8.077802 -0.486900 -3.806300 6.772305 18.405695 -52.609576 1.611663 4.331447 -49.077040 0.474394 2.826159 -20.227795 0.000000 0.000000 -0.000000 -8.207802 -6.751708 -1.599534 -22.888049 -0.397352 -18.383405 46.482914 -4.701888 -9.470403 -24.444345 0.184415 -0.485588 6.106486 -0.000003 -0.000000 -0.000001 -0.000000 -0.000000 8.207800 -6.751695 -1.599543 2.852797 3.163638 -21.379216 25.481187 8.373277 2.523978 -8.482173 6.617050 -7.158104 -3.468968 -0.000010 0.000001 -0.000000 0.000000 0.000000 
